<?xml version="1.0" encoding="UTF-8"?>
<svg version="1.1" xmlns="http://www.w3.org/2000/svg" width="736" height="736">
<path d="M0 0 C25.85338726 -0.39537286 51.70603386 -0.69783514 77.56184769 -0.88080692 C89.57028063 -0.96806459 101.57678832 -1.08678085 113.58398438 -1.2824707 C124.06295914 -1.45317103 134.54053851 -1.5618806 145.0208652 -1.59950441 C150.55899777 -1.62146287 156.09314256 -1.67216345 161.62998199 -1.79741096 C187.49722922 -2.35980019 206.3328232 -1.59144384 227.16802216 14.84814644 C231.83789248 18.3965065 236.88434019 21.28795962 241.9375 24.25 C243.81974172 25.39118415 245.70022493 26.53527912 247.578125 27.68359375 C248.48369141 28.23644043 249.38925781 28.78928711 250.32226562 29.35888672 C255.47365513 32.51603846 260.60368866 35.70761134 265.73608398 38.89550781 C273.72435741 43.84825223 281.7594126 48.7229165 289.80026245 53.58959961 C298.66193597 58.95337522 307.49043296 64.36731266 316.25390625 69.890625 C317.03121094 70.37660156 317.80851562 70.86257813 318.609375 71.36328125 C319.26905273 71.77876221 319.92873047 72.19424316 320.60839844 72.62231445 C326.64535239 76.09991053 332.57224406 78.70100311 339.28588867 80.56201172 C340.07262466 80.78704376 340.85936066 81.01207581 341.66993713 81.243927 C344.25053805 81.98005582 346.83415832 82.70491276 349.41796875 83.4296875 C351.23972618 83.9469831 353.06128133 84.46499156 354.88264465 84.9836731 C359.67461518 86.34628313 364.46922056 87.69937981 369.26446533 89.05041504 C374.07308033 90.4069202 378.8792282 91.77210413 383.68554688 93.13671875 C389.97015012 94.92030702 396.25548555 96.70123803 402.54256153 98.47609138 C405.00233345 99.17082521 407.46170159 99.86697226 409.92098999 100.56341553 C413.57590415 101.59843577 417.23258425 102.62701744 420.88980103 103.65386963 C422.8254167 104.20026318 424.76099505 104.74678895 426.6965332 105.29345703 C428.06971474 105.67716115 428.06971474 105.67716115 429.47063732 106.06861687 C430.31087098 106.30669626 431.15110464 106.54477566 432.01679993 106.79006958 C432.76313344 106.99995073 433.50946695 107.20983189 434.27841663 107.42607307 C436 108 436 108 437 109 C437.08631874 110.34267413 437.10706473 111.68974322 437.09765625 113.03515625 C437.09515869 113.76355713 437.09266113 114.49195801 437.09008789 115.24243164 C437.07643188 116.63836548 437.07643188 116.63836548 437.0625 118.0625 C437.041875 121.011875 437.02125 123.96125 437 127 C442.94 127 448.88 127 455 127 C455 145.48 455 163.96 455 183 C449.06 183 443.12 183 437 183 C437 188.94 437 194.88 437 201 C418.85 201 400.7 201 382 201 C380.02 192.09 380.02 192.09 378 183 C371.67924978 168.12764653 363.14552939 156.93036342 347.84375 150.71875 C332.55572153 145.42091835 318.65096232 145.81405706 303.875 152.625 C290.60657618 159.66680401 282.4337849 170.45766249 277.04296875 184.23828125 C275.52577359 189.7104121 274.86346656 195.38746736 274 201 C225.49 201 176.98 201 127 201 C126.01 194.07 126.01 194.07 125 187 C120.10252679 171.26872241 111.70802016 160.40256767 97.20703125 152.47265625 C83.5686409 145.83620397 69.38878002 145.23739796 55 150 C40.05853788 156.57832291 29.77016646 166.32357606 23.578125 181.48046875 C21.58551569 187.63878664 20.53621177 193.56545871 20 200 C19 201 19 201 16.10838318 201.12025452 C14.81376663 201.11803391 13.51915009 201.11581329 12.18530273 201.11352539 C11.11706772 201.11374443 11.11706772 201.11374443 10.0272522 201.1139679 C7.66266888 201.1132687 5.29816339 201.10547606 2.93359375 201.09765625 C1.29834537 201.09579209 -0.33690357 201.09436818 -1.97215271 201.09336853 C-6.28434785 201.08954318 -10.59650952 201.07971275 -14.90869141 201.06866455 C-19.30565946 201.0584508 -23.70263289 201.05387099 -28.09960938 201.04882812 C-36.73309002 201.03809049 -45.36653699 201.02049356 -54 201 C-54 194.73 -54 188.46 -54 182 C-36.18 182 -18.36 182 0 182 C0 175.73 0 169.46 0 163 C5.94 163 11.88 163 18 163 C18 157.39 18 151.78 18 146 C-11.7 146 -41.4 146 -72 146 C-72 139.73 -72 133.46 -72 127 C-48.24 127 -24.48 127 0 127 C0 121.06 0 115.12 0 109 C12.21 109 24.42 109 37 109 C37 103.39 37 97.78 37 92 C6.97 92 -23.06 92 -54 92 C-54 85.73 -54 79.46 -54 73 C5.73 73 65.46 73 127 73 C127 67.06 127 61.12 127 55 C55.39 55 -16.22 55 -90 55 C-90 48.73 -90 42.46 -90 36 C-24.33 36 41.34 36 109 36 C109 30.39 109 24.78 109 19 C73.03 19 37.06 19 0 19 C0 12.73 0 6.46 0 0 Z " fill="#3B3C98" transform="translate(206,250)"/>
<path d="M0 0 C9.08045306 7.61693681 13.78314596 15.53146632 15.0078125 27.3515625 C15.50237931 38.19398866 12.5875508 47.5617647 5.3125 55.8671875 C-3.68180845 64.24245448 -13.3779983 67.18916442 -25.44921875 67.06640625 C-35.88898389 66.21929388 -44.12158116 61.01297631 -51.1171875 53.4765625 C-58.27801922 44.69625112 -59.71229547 34.799962 -58.8671875 23.7890625 C-56.97960559 14.03855978 -52.38070139 5.83398441 -44.30078125 -0.09375 C-30.06232175 -8.87873098 -14.00249177 -10.18819294 0 0 Z " fill="#3B3C98" transform="translate(555.8671875,420.2109375)"/>
<path d="M0 0 C6.85594723 5.45204551 11.80252017 12.67935565 13.8125 21.25 C15.03568218 33.41941455 13.60483499 44.64763281 5.6328125 54.40234375 C-2.37792858 62.53341785 -11.2617867 66.25648352 -22.5625 66.6875 C-33.22072104 66.38656199 -42.71834451 63.01963875 -50.1875 55.25 C-58.20682608 44.81873102 -60.72141062 34.27703212 -59.1875 21.25 C-56.71428638 11.26511897 -50.83772455 3.26039641 -42.4375 -2.625 C-28.40629095 -10.50216999 -12.92143688 -8.94748554 0 0 Z " fill="#3B3C98" transform="translate(302.1875,420.75)"/>
</svg>
